<?xml version="1.0" standalone="no"?>
<!DOCTYPE svg PUBLIC "-//W3C//DTD SVG 20010904//EN"
 "http://www.w3.org/TR/2001/REC-SVG-20010904/DTD/svg10.dtd">
<svg version="1.0" xmlns="http://www.w3.org/2000/svg"
 width="700.000000pt" height="700.000000pt" viewBox="0 0 700.000000 700.000000"
 preserveAspectRatio="xMidYMid meet">
<metadata>
Created by potrace 1.11, written by Peter Selinger 2001-2013
</metadata>
<g transform="translate(0.000000,700.000000) scale(0.100000,-0.100000)"
fill="#000000" stroke="none">
<path d="M3295 6838 c-119 -25 -110 -22 -194 -57 -285 -117 -500 -361 -606
-689 -46 -141 -64 -280 -60 -457 1 -88 6 -176 10 -195 41 -213 102 -393 203
-596 82 -165 88 -175 195 -341 82 -128 95 -173 92 -329 -2 -137 -20 -196 -80
-270 -63 -76 -60 -75 -684 -328 -90 -37 -185 -76 -210 -88 -146 -66 -265 -198
-319 -354 -19 -55 -24 -92 -38 -274 -2 -36 -7 -90 -9 -120 -3 -30 -7 -88 -10
-128 l-6 -72 1908 2 1908 3 -1 30 c-1 34 -14 207 -20 275 -2 25 -6 79 -8 120
-12 181 -86 327 -221 437 -60 49 -115 78 -260 136 -173 70 -387 158 -420 172
-16 7 -70 29 -120 50 -162 66 -223 115 -273 224 -24 51 -27 68 -28 189 -2 161
7 198 80 307 192 289 343 630 398 900 26 125 31 342 12 475 -74 503 -372 861
-809 971 -116 29 -311 33 -430 7z"/>
<path d="M1363 6090 c-143 -32 -287 -110 -394 -213 -152 -147 -244 -337 -287
-591 -9 -55 -8 -300 1 -356 18 -103 73 -277 124 -390 40 -88 107 -218 146
-281 23 -39 47 -78 52 -87 6 -10 20 -32 33 -49 42 -59 52 -106 49 -231 -2
-101 -6 -124 -27 -166 -49 -97 -84 -118 -446 -265 -181 -74 -355 -149 -386
-168 -64 -38 -134 -111 -172 -180 -44 -78 -56 -136 -56 -274 0 -126 0 -127 33
-175 37 -56 94 -98 152 -113 25 -6 242 -10 573 -11 l532 0 1 47 c1 27 3 57 4
68 3 24 15 188 21 270 14 210 43 321 119 455 51 90 78 124 159 203 84 82 186
147 307 197 49 20 92 39 95 43 4 3 8 48 9 99 1 51 5 106 10 121 4 16 43 85 87
155 76 120 151 261 193 362 34 82 65 175 65 193 0 10 -20 64 -44 120 -82 188
-135 368 -162 550 -16 105 -20 297 -9 379 6 42 4 50 -19 73 -86 86 -226 165
-363 206 -97 29 -290 33 -400 9z"/>
<path d="M5265 6093 c-110 -23 -271 -95 -332 -148 -6 -5 -31 -27 -56 -47 l-44
-37 2 -178 c3 -139 -1 -202 -16 -288 -27 -156 -80 -336 -146 -494 -31 -75 -56
-144 -56 -153 6 -71 131 -340 250 -535 101 -164 107 -183 107 -315 l0 -76 70
-28 c365 -144 585 -429 610 -789 4 -49 9 -106 11 -125 2 -19 7 -79 10 -132 4
-53 8 -105 10 -115 2 -10 4 -35 4 -56 l1 -37 539 0 c573 1 570 1 647 51 85 57
117 139 109 280 -11 188 -82 320 -222 411 -40 26 -158 81 -288 133 -121 48
-238 96 -260 105 -22 10 -75 32 -117 50 -150 61 -209 155 -210 330 0 115 13
170 56 230 130 182 274 488 325 690 31 127 36 163 35 305 -1 307 -104 568
-296 751 -109 104 -201 157 -345 200 -111 33 -290 41 -398 17z"/>
<path d="M298 2139 c-7 -5 -11 -331 -12 -998 l-1 -991 716 0 717 0 -2 112 -1
113 -585 0 -585 0 0 340 0 340 515 2 c283 1 527 2 541 2 l26 1 1 110 2 110
-33 1 c-17 0 -262 1 -544 1 l-512 0 -1 319 0 318 442 0 c244 0 498 0 565 1
l122 0 0 110 c0 97 -2 110 -17 111 -76 5 -1346 3 -1354 -2z"/>
<path d="M3169 2136 c-5 -6 -9 -14 -9 -20 0 -5 -22 -70 -49 -145 -57 -157
-139 -389 -182 -511 -17 -47 -39 -107 -49 -135 -11 -27 -58 -160 -105 -295
-48 -135 -97 -274 -110 -310 -39 -106 -104 -285 -155 -433 l-49 -137 135 0
c119 0 135 2 140 18 3 9 10 26 14 37 5 11 27 72 49 135 22 63 63 181 92 262
l52 148 383 0 383 0 19 -52 c11 -29 57 -164 103 -300 l84 -248 142 0 142 0
-63 183 c-35 100 -107 306 -161 457 -53 151 -143 408 -200 570 -57 162 -129
367 -160 455 -31 88 -67 194 -82 235 -14 41 -29 79 -34 85 -12 12 -317 13
-330 1z m326 -746 c64 -190 123 -364 130 -386 l12 -42 -313 1 c-173 0 -314 3
-314 7 0 4 6 25 14 46 177 487 272 751 289 798 l21 59 22 -69 c12 -38 75 -224
139 -414z"/>
<path d="M4900 2138 c0 -5 58 -92 265 -396 39 -56 123 -180 187 -275 64 -94
121 -177 125 -182 81 -104 82 -110 17 -200 -20 -27 -99 -142 -177 -255 -78
-113 -211 -306 -297 -430 -86 -124 -159 -231 -164 -238 -5 -9 28 -12 147 -12
l154 0 130 198 c71 108 194 295 273 415 l143 218 156 -238 c86 -131 208 -318
271 -415 l115 -177 158 0 c124 -1 157 2 151 12 -5 6 -38 55 -74 107 -37 52
-96 138 -132 190 -36 52 -147 214 -248 360 -101 146 -197 284 -213 308 l-29
43 34 52 c29 43 138 201 178 257 140 197 449 653 446 658 -3 6 -228 8 -282 3
-7 -1 -40 -45 -75 -98 -35 -54 -144 -222 -244 -373 -100 -151 -186 -283 -191
-293 -9 -16 -18 -7 -64 65 -30 46 -131 200 -225 343 -94 143 -184 281 -200
307 -17 27 -37 48 -45 49 -60 5 -290 3 -290 -3z"/>
</g>
</svg>
