<?xml version="1.0" encoding="utf-8"?>
<!-- Generator: Adobe Illustrator 18.1.1, SVG Export Plug-In . SVG Version: 6.00 Build 0)  -->
<!DOCTYPE svg PUBLIC "-//W3C//DTD SVG 1.1//EN" "http://www.w3.org/Graphics/SVG/1.1/DTD/svg11.dtd">
<svg version="1.1" id="_x32_" xmlns="http://www.w3.org/2000/svg" xmlns:xlink="http://www.w3.org/1999/xlink" x="0px" y="0px"
	 viewBox="0 0 500 650" style="enable-background:new 0 0 500 650;" xml:space="preserve">
<style type="text/css">
	.st0{fill:#00A2E8;}
</style>
<g>
	<path class="st0" d="M378.409,0H208.294h-13.175l-9.315,9.314L57.016,138.102l-9.314,9.314v13.176v265.513
		c0,47.361,38.528,85.896,85.896,85.896h244.811c47.36,0,85.888-38.535,85.888-85.896V85.895C464.298,38.528,425.769,0,378.409,0z
		 M432.494,426.104c0,29.877-24.215,54.092-54.084,54.092H133.598c-29.877,0-54.092-24.215-54.092-54.092V160.591h83.717
		c24.885,0,45.07-20.179,45.07-45.07V31.804h170.116c29.87,0,54.084,24.214,54.084,54.091V426.104z"/>
</g>
<text x="15.00" y="600.0" style="fill:#00A2E8;
 font-family:Avenir , 'Open Sans' , 'Helvetica Neue' , Helvetica , Arial , Verdana , Roboto , '游ゴシック' , 
'Yu Gothic' , '游ゴシック体' , 'YuGothic' , 'ヒラギノ角ゴ Pro W3' , 'Hiragino Kaku Gothic Pro' , 'Meiryo UI' ,
 'メイリオ' , Meiryo , 'ＭＳ Ｐゴシック' , 'MS PGothic' , sans-serif;
  font-size: 110px;   letter-spacing: 36px;  word-spacing: 14.6px;  white-space: pre;">About</text>
</svg>
