<?xml version="1.0" encoding="utf-8"?>
<svg version="1.1" id="_x32_" x="0px" y="0px" viewBox="0 0 1000 300" style="enable-background:new 0 0 1000 300;" xmlns="http://www.w3.org/2000/svg">
  <style type="text/css">
	.st0{fill:#00A2E8;}
</style>
  <g style="" transform="matrix(0.560079, 0, 0, 0.547599, 32.747604, 14.377007)">
    <path class="st0" d="M256,0C114.625,0,0,114.625,0,256c0,141.374,114.625,256,256,256c141.374,0,256-114.626,256-256&#10;&#9;&#9;C512,114.625,397.374,0,256,0z M351.062,258.898l-144,85.945c-1.031,0.626-2.344,0.657-3.406,0.031&#10;&#9;&#9;c-1.031-0.594-1.687-1.702-1.687-2.937v-85.946v-85.946c0-1.218,0.656-2.343,1.687-2.938c1.062-0.609,2.375-0.578,3.406,0.031&#10;&#9;&#9;l144,85.962c1.031,0.586,1.641,1.718,1.641,2.89C352.703,257.187,352.094,258.297,351.062,258.898z"/>
  </g>
  <text x="390" y="200" style="fill:#00A2E8;&#10; font-family:Avenir , 'Open Sans' , 'Helvetica Neue' , Helvetica , Arial , Verdana , Roboto , '游ゴシック' , &#10;'Yu Gothic' , '游ゴシック体' , 'YuGothic' , 'ヒラギノ角ゴ Pro W3' , 'Hiragino Kaku Gothic Pro' , 'Meiryo UI' ,&#10; 'メイリオ' , Meiryo , 'ＭＳ Ｐゴシック' , 'MS PGothic' , sans-serif;&#10;  font-size: 120px;   letter-spacing: 40px;  word-spacing: 14.6px;  white-space: pre;">Player</text>
</svg>