<?xml version="1.0" encoding="utf-8"?>
<svg version="1.1" id="_x32_" x="0px" y="0px" viewBox="0 0 1000 120" style="width: 1000px; height: 120px; opacity: 1;" xmlns="http://www.w3.org/2000/svg">
  <style type="text/css">
	.st0{fill:#00A2E8;}
</style>
  <g transform="matrix(0.179516, 0.00043, -0.000452, 0.188794, 61.19804, 10.274668)" style="">
    <path class="st0" d="M243.591,309.362c3.272,4.317,7.678,6.692,12.409,6.692c4.73,0,9.136-2.376,12.409-6.689l89.594-118.094&#10;&#9;&#9;c3.348-4.414,4.274-8.692,2.611-12.042c-1.666-3.35-5.631-5.198-11.168-5.198H315.14c-9.288,0-16.844-7.554-16.844-16.84V59.777&#10;&#9;&#9;c0-11.04-8.983-20.027-20.024-20.027h-44.546c-11.04,0-20.022,8.987-20.022,20.027v97.415c0,9.286-7.556,16.84-16.844,16.84&#10;&#9;&#9;h-34.305c-5.538,0-9.503,1.848-11.168,5.198c-1.665,3.35-0.738,7.628,2.609,12.046L243.591,309.362z" style="fill: rgb(0, 162, 232);"/>
    <path class="st0" d="M445.218,294.16v111.304H66.782V294.16H0v152.648c0,14.03,11.413,25.443,25.441,25.443h461.118&#10;&#9;&#9;c14.028,0,25.441-11.413,25.441-25.443V294.16H445.218z" style="fill: rgb(0, 162, 232);"/>
  </g>
  <text x="205.495" y="84.983" style="fill: rgb(0, 162, 232); font-family: Avenir, &quot;Open Sans&quot;, &quot;Helvetica Neue&quot;, Helvetica, Arial, Verdana, Roboto, 游ゴシック, &quot;Yu Gothic&quot;, 游ゴシック体, YuGothic, &quot;ヒラギノ角ゴ Pro W3&quot;, &quot;Hiragino Kaku Gothic Pro&quot;, &quot;Meiryo UI&quot;, メイリオ, Meiryo, &quot;ＭＳ Ｐゴシック&quot;, &quot;MS PGothic&quot;, sans-serif; font-size: 61px; letter-spacing: 5.6px; word-spacing: 5.6px; white-space: pre;">Encode And Download</text>
</svg>