<?xml version="1.0" encoding="utf-8"?>
<svg version="1.1" id="_x32_" x="0px" y="0px" viewBox="0 0 1000 300" style="enable-background:new 0 0 1000 300;" xmlns="http://www.w3.org/2000/svg">
  <style type="text/css">
	.st0{fill:#00A2E8;}
</style>
  <g style="" transform="matrix(0.409579, 0, 0, 0.406527, 58.630016, 41.5742)">
    <path class="st0" d="M500.11,71.074l-59.202-59.181c-15.856-15.848-41.53-15.862-57.386-0.014l-38.378,38.378L57.252,338.185&#10;&#9;&#9;c-7.775,7.775-13.721,17.158-17.44,27.498L1.799,471.479c-3.957,11.032-1.206,23.36,7.092,31.656&#10;&#9;&#9;c8.288,8.288,20.627,11.046,31.662,7.075l105.774-38.024c10.339-3.714,19.729-9.674,27.501-17.435l277.883-277.893l0.006,0.014&#10;&#9;&#9;l10.028-10.048l38.364-38.37l0.014-0.021C515.91,112.598,515.965,86.943,500.11,71.074z M77.321,358.254L363.814,71.732&#10;&#9;&#9;l33.208,33.208L107.66,394.296l-33.035-33.028C75.491,360.236,76.364,359.209,77.321,358.254z M136.734,445.472L69.33,469.699&#10;&#9;&#9;l-27.019-27.02l24.223-67.392c0.17-0.492,0.412-0.957,0.602-1.442l71.028,71.024C137.68,445.064,137.218,445.299,136.734,445.472z&#10;&#9;&#9; M153.757,434.682c-0.956,0.95-1.982,1.83-3.014,2.696l-33.045-33.042l289.359-289.362l33.194,33.201L153.757,434.682z&#10;&#9;&#9; M480.034,108.384l-28.322,28.336l-1.42,1.421l-76.443-76.442l29.743-29.75c4.768-4.733,12.474-4.74,17.248,0.014l59.195,59.174&#10;&#9;&#9;c4.761,4.754,4.767,12.46-0.021,17.269L480.034,108.384z"/>
  </g>
 <text x="350" y="200" style="fill:#00A2E8;&#10; font-family:Avenir , 'Open Sans' , 'Helvetica Neue' , Helvetica , Arial , Verdana , Roboto , '游ゴシック' , &#10;'Yu Gothic' , '游ゴシック体' , 'YuGothic' , 'ヒラギノ角ゴ Pro W3' , 'Hiragino Kaku Gothic Pro' , 'Meiryo UI' ,&#10; 'メイリオ' , Meiryo , 'ＭＳ Ｐゴシック' , 'MS PGothic' , sans-serif;&#10;  font-size: 120px;   letter-spacing: 40px;  word-spacing: 14.6px;  white-space: pre;">Builder</text>

</svg>