<?xml version="1.0" encoding="utf-8"?>
<!-- Generator: Adobe Illustrator 18.1.1, SVG Export Plug-In . SVG Version: 6.00 Build 0)  -->
<!DOCTYPE svg PUBLIC "-//W3C//DTD SVG 1.1//EN" "http://www.w3.org/Graphics/SVG/1.1/DTD/svg11.dtd">
<svg version="1.1" id="_x32_" xmlns="http://www.w3.org/2000/svg" xmlns:xlink="http://www.w3.org/1999/xlink" x="0px" y="0px"
	 viewBox="0 0 500 650" style="enable-background:new 0 0 500 650;" xml:space="preserve">
<style type="text/css">
	.st0{fill:#00A2E8;}
</style>
<g>
	<path class="st0" d="M500.11,71.074l-59.202-59.181c-15.856-15.848-41.53-15.862-57.386-0.014l-38.378,38.378L57.252,338.185
		c-7.775,7.775-13.721,17.158-17.44,27.498L1.799,471.479c-3.957,11.032-1.206,23.36,7.092,31.656
		c8.288,8.288,20.627,11.046,31.662,7.075l105.774-38.024c10.339-3.714,19.729-9.674,27.501-17.435l277.883-277.893l0.006,0.014
		l10.028-10.048l38.364-38.37l0.014-0.021C515.91,112.598,515.965,86.943,500.11,71.074z M77.321,358.254L363.814,71.732
		l33.208,33.208L107.66,394.296l-33.035-33.028C75.491,360.236,76.364,359.209,77.321,358.254z M136.734,445.472L69.33,469.699
		l-27.019-27.02l24.223-67.392c0.17-0.492,0.412-0.957,0.602-1.442l71.028,71.024C137.68,445.064,137.218,445.299,136.734,445.472z
		 M153.757,434.682c-0.956,0.95-1.982,1.83-3.014,2.696l-33.045-33.042l289.359-289.362l33.194,33.201L153.757,434.682z
		 M480.034,108.384l-28.322,28.336l-1.42,1.421l-76.443-76.442l29.743-29.75c4.768-4.733,12.474-4.74,17.248,0.014l59.195,59.174
		c4.761,4.754,4.767,12.46-0.021,17.269L480.034,108.384z"/>
</g>

 <text x="3.00" y="600.0" style="fill:#00A2E8;
 font-family:Avenir , 'Open Sans' , 'Helvetica Neue' , Helvetica , Arial , Verdana , Roboto , '游ゴシック' , 
'Yu Gothic' , '游ゴシック体' , 'YuGothic' , 'ヒラギノ角ゴ Pro W3' , 'Hiragino Kaku Gothic Pro' , 'Meiryo UI' ,
 'メイリオ' , Meiryo , 'ＭＳ Ｐゴシック' , 'MS PGothic' , sans-serif;
  font-size: 100px;   letter-spacing: 40px;  word-spacing: 14.6px;  white-space: pre;">Builder</text>
</svg>
